<svg width="921" height="219" viewBox="0 0 921 219" fill="none" xmlns="http://www.w3.org/2000/svg">
<path d="M484.11 109.9C484.11 99.8747 486.349 90.92 490.826 83.036C495.401 75.0547 501.581 68.874 509.368 64.494C517.252 60.0167 526.061 57.778 535.794 57.778C547.182 57.778 557.159 60.698 565.724 66.538C574.289 72.378 580.275 80.4567 583.682 90.774H560.176C557.84 85.9073 554.531 82.2573 550.248 79.824C546.063 77.3907 541.196 76.174 535.648 76.174C529.711 76.174 524.406 77.5853 519.734 80.408C515.159 83.1333 511.558 87.0267 508.93 92.088C506.399 97.1493 505.134 103.087 505.134 109.9C505.134 116.616 506.399 122.553 508.93 127.712C511.558 132.773 515.159 136.715 519.734 139.538C524.406 142.263 529.711 143.626 535.648 143.626C541.196 143.626 546.063 142.409 550.248 139.976C554.531 137.445 557.84 133.747 560.176 128.88H583.682C580.275 139.295 574.289 147.422 565.724 153.262C557.256 159.005 547.279 161.876 535.794 161.876C526.061 161.876 517.252 159.686 509.368 155.306C501.581 150.829 495.401 144.648 490.826 136.764C486.349 128.88 484.11 119.925 484.11 109.9ZM639.392 78.948C645.524 78.948 650.975 80.3107 655.744 83.036C660.514 85.664 664.212 89.606 666.84 94.862C669.566 100.021 670.928 106.25 670.928 113.55V161H650.488V116.324C650.488 109.9 648.882 104.985 645.67 101.578C642.458 98.074 638.078 96.322 632.53 96.322C626.885 96.322 622.408 98.074 619.098 101.578C615.886 104.985 614.28 109.9 614.28 116.324V161H593.84V52.96H614.28V90.19C616.908 86.686 620.412 83.9607 624.792 82.014C629.172 79.97 634.039 78.948 639.392 78.948ZM758.256 118.806C758.256 121.726 758.061 124.354 757.672 126.69H698.542C699.028 132.53 701.072 137.105 704.674 140.414C708.275 143.723 712.704 145.378 717.96 145.378C725.552 145.378 730.954 142.117 734.166 135.596H756.212C753.876 143.383 749.398 149.807 742.78 154.868C736.161 159.832 728.034 162.314 718.398 162.314C710.611 162.314 703.603 160.611 697.374 157.204C691.242 153.7 686.424 148.785 682.92 142.458C679.513 136.131 677.81 128.831 677.81 120.558C677.81 112.187 679.513 104.839 682.92 98.512C686.326 92.1853 691.096 87.3187 697.228 83.912C703.36 80.5053 710.416 78.802 718.398 78.802C726.087 78.802 732.949 80.4567 738.984 83.766C745.116 87.0753 749.836 91.796 753.146 97.928C756.552 103.963 758.256 110.922 758.256 118.806ZM737.086 112.966C736.988 107.71 735.09 103.525 731.392 100.41C727.693 97.198 723.167 95.592 717.814 95.592C712.752 95.592 708.47 97.1493 704.966 100.264C701.559 103.281 699.466 107.515 698.688 112.966H737.086ZM760.619 120.558C760.619 112.187 762.323 104.887 765.729 98.658C769.136 92.3313 773.857 87.4647 779.891 84.058C785.926 80.554 792.837 78.802 800.623 78.802C810.649 78.802 818.922 81.3327 825.443 86.394C832.062 91.358 836.491 98.366 838.729 107.418H816.683C815.515 103.914 813.52 101.189 810.697 99.242C807.972 97.198 804.565 96.176 800.477 96.176C794.637 96.176 790.014 98.3173 786.607 102.6C783.201 106.785 781.497 112.771 781.497 120.558C781.497 128.247 783.201 134.233 786.607 138.516C790.014 142.701 794.637 144.794 800.477 144.794C808.751 144.794 814.153 141.095 816.683 133.698H838.729C836.491 142.458 832.062 149.417 825.443 154.576C818.825 159.735 810.551 162.314 800.623 162.314C792.837 162.314 785.926 160.611 779.891 157.204C773.857 153.7 769.136 148.833 765.729 142.604C762.323 136.277 760.619 128.929 760.619 120.558ZM894.291 161L866.843 126.544V161H846.403V52.96H866.843V114.426L893.999 80.116H920.571L884.947 120.704L920.863 161H894.291Z" fill="white"/>
<path d="M257.424 59.092V75.59H230.268V161H209.828V75.59H182.672V59.092H257.424ZM285.478 92.672C288.106 88.3893 291.512 85.0313 295.698 82.598C299.98 80.1647 304.847 78.948 310.298 78.948V100.41H304.896C298.472 100.41 293.605 101.919 290.296 104.936C287.084 107.953 285.478 113.209 285.478 120.704V161H265.038V80.116H285.478V92.672ZM393.123 80.116V161H372.537V150.78C369.909 154.284 366.454 157.058 362.171 159.102C357.986 161.049 353.411 162.022 348.447 162.022C342.12 162.022 336.524 160.708 331.657 158.08C326.79 155.355 322.946 151.413 320.123 146.254C317.398 140.998 316.035 134.769 316.035 127.566V80.116H336.475V124.646C336.475 131.07 338.081 136.034 341.293 139.538C344.505 142.945 348.885 144.648 354.433 144.648C360.078 144.648 364.507 142.945 367.719 139.538C370.931 136.034 372.537 131.07 372.537 124.646V80.116H393.123ZM481.18 118.806C481.18 121.726 480.986 124.354 480.596 126.69H421.466C421.953 132.53 423.997 137.105 427.598 140.414C431.2 143.723 435.628 145.378 440.884 145.378C448.476 145.378 453.878 142.117 457.09 135.596H479.136C476.8 143.383 472.323 149.807 465.704 154.868C459.086 159.832 450.958 162.314 441.322 162.314C433.536 162.314 426.528 160.611 420.298 157.204C414.166 153.7 409.348 148.785 405.844 142.458C402.438 136.131 400.734 128.831 400.734 120.558C400.734 112.187 402.438 104.839 405.844 98.512C409.251 92.1853 414.02 87.3187 420.152 83.912C426.284 80.5053 433.341 78.802 441.322 78.802C449.012 78.802 455.874 80.4567 461.908 83.766C468.04 87.0753 472.761 91.796 476.07 97.928C479.477 103.963 481.18 110.922 481.18 118.806ZM460.01 112.966C459.913 107.71 458.015 103.525 454.316 100.41C450.618 97.198 446.092 95.592 440.738 95.592C435.677 95.592 431.394 97.1493 427.89 100.264C424.484 103.281 422.391 107.515 421.612 112.966H460.01Z" fill="white"/>
<path d="M116.5 90.833H155.333V168.5H77.6667V129.666H116.5V90.833Z" fill="white"/>
<path d="M0 52V90.8333H38.8333V129.667H77.6667V90.8333H116.5V52H0Z" fill="white"/>
</svg>
